<svg id="visual" viewBox="0 0 900 600" width="900" height="600" xmlns="http://www.w3.org/2000/svg" xmlns:xlink="http://www.w3.org/1999/xlink" version="1.1"><rect x="0" y="0" width="900" height="600" fill="#FFFFFF"></rect><defs><linearGradient id="grad1_0" x1="33.3%" y1="100%" x2="100%" y2="0%"><stop offset="20%" stop-color="#ffffff" stop-opacity="1"></stop><stop offset="80%" stop-color="#ffffff" stop-opacity="1"></stop></linearGradient></defs><defs><linearGradient id="grad2_0" x1="0%" y1="100%" x2="66.7%" y2="0%"><stop offset="20%" stop-color="#ffffff" stop-opacity="1"></stop><stop offset="80%" stop-color="#ffffff" stop-opacity="1"></stop></linearGradient></defs><g transform="translate(900, 600)"><path d="M-486.7 0C-459.1 -55.1 -431.5 -110.3 -412.1 -170.7C-392.6 -231.1 -381.2 -296.7 -344.2 -344.2C-307.2 -391.6 -244.6 -420.9 -182.9 -441.6C-121.3 -462.3 -60.6 -474.5 0 -486.7L0 0Z" fill="#9ce5c4"></path></g><g transform="translate(0, 0)"><path d="M486.7 0C433.6 46.2 380.4 92.5 359.4 148.9C338.4 205.2 349.7 271.8 326.7 326.7C303.7 381.6 246.4 425 186.3 449.7C126.1 474.4 63.1 480.6 0 486.7L0 0Z" fill="#9ce5c4"></path></g></svg>